<svg width="640" height="700" text-rendering="geometricPrecision" font-family="arial" font-size="12px" fill="#eee"><path d="M300,40 Q320,35 340,40" stroke="#424d5c" fill="none" stroke-width="1px"></path><path d="M335,35 340,40 335,45" stroke="#424d5c" fill="none" stroke-width="1px" transform="rotate(8, 340, 40)"></path><path d="M300,60 Q320,65 340,60" stroke="#424d5c" fill="none" stroke-width="1px"></path><path d="M305,65 300,60 305,55" stroke="#424d5c" fill="none" stroke-width="1px" transform="rotate(8, 300, 60)"></path><circle cx="145.70005627542207" cy="217.00336047555902" r="60" class="background-element" stroke="#424d5c" fill="none"></circle><path class="background-element" d="M193.4,253.4 Q320,313.4 446.6,253.4" stroke="#424d5c" fill="none"></path><path class="background-element" d="M193.4,253.4 Q352.41813835208836,329.5117409115262 446.6,506.6" stroke="#424d5c" fill="none"></path><path class="background-element" d="M193.4,253.4 Q253.4,380 193.4,506.6" stroke="#424d5c" fill="none"></path><path class="background-element" d="M446.6,253.4 Q320,193.4 193.4,253.4" stroke="#424d5c" fill="none"></path><circle cx="494.29994372457793" cy="217.00336047555905" r="60" class="background-element" stroke="#424d5c" fill="none"></circle><path class="background-element" d="M446.6,253.4 Q506.6,380 446.6,506.6" stroke="#424d5c" fill="none"></path><path class="background-element" d="M446.6,253.4 Q352.41813835208836,430.4882590884738 193.4,506.6" stroke="#424d5c" fill="none"></path><path class="background-element" d="M446.6,506.6 Q287.58186164791164,430.4882590884738 193.4,253.4" stroke="#424d5c" fill="none"></path><path class="background-element" d="M446.6,506.6 Q386.6,380 446.6,253.4" stroke="#424d5c" fill="none"></path><circle cx="484.3210288072226" cy="553.2596612259957" r="60" class="background-element" stroke="#424d5c" fill="none"></circle><path class="background-element" d="M446.6,506.6 Q320,566.6 193.4,506.6" stroke="#424d5c" fill="none"></path><path class="background-element" d="M193.4,506.6 Q133.4,380 193.4,253.4" stroke="#424d5c" fill="none"></path><path class="background-element" d="M193.4,506.6 Q287.58186164791164,329.5117409115262 446.6,253.4" stroke="#424d5c" fill="none"></path><path class="background-element" d="M193.4,506.6 Q320,446.6 446.6,506.6" stroke="#424d5c" fill="none"></path><circle cx="155.67897119277745" cy="553.2596612259957" r="60" class="background-element" stroke="#424d5c" fill="none"></circle><circle cx="193.4" cy="253.4" r="25" fill="#222831" stroke="none" class="background-element"></circle><text x="193.4" y="253.4" text-anchor="middle" alignment-baseline="middle" class="background-element" id="A">A</text><circle cx="446.6" cy="253.4" r="25" fill="#222831" stroke="none" class="background-element"></circle><text x="446.6" y="253.4" text-anchor="middle" alignment-baseline="middle" class="background-element" id="T">T</text><circle cx="446.6" cy="506.6" r="25" fill="#222831" stroke="none" class="background-element"></circle><text x="446.6" y="506.6" text-anchor="middle" alignment-baseline="middle" class="background-element" id="C">C</text><circle cx="193.4" cy="506.6" r="25" fill="#222831" stroke="none" class="background-element"></circle><text x="193.4" y="506.6" text-anchor="middle" alignment-baseline="middle" class="background-element" id="G">G</text><path d="M193.4,506.6 Q320,446.6 446.6,506.6" stroke="#ff7657" fill="none" stroke-width="14px" class="struqture-element"></path><path d="M446.6,506.6 Q287.58186164791164,430.4882590884738 193.4,253.4" stroke="#ff7657" fill="none" stroke-width="5px" class="struqture-element"></path><path d="M193.4,253.4 Q352.41813835208836,329.5117409115262 446.6,506.6" stroke="#ff7657" fill="none" stroke-width="4px" class="struqture-element"></path><path d="M446.6,506.6 Q320,566.6 193.4,506.6" stroke="#ff7657" fill="none" stroke-width="13px" class="struqture-element"></path><circle cx="484.3210288072226" cy="553.2596612259957" r="60" stroke="#ff7657" stroke-width="17" fill="none" class="struqture-element"></circle><circle cx="155.67897119277745" cy="553.2596612259957" r="60" stroke="#ff7657" stroke-width="10" fill="none" class="struqture-element"></circle><path d="M193.4,506.6 Q133.4,380 193.4,253.4" stroke="#ff7657" fill="none" stroke-width="4px" class="struqture-element"></path><path d="M446.6,506.6 Q386.6,380 446.6,253.4" stroke="#ff7657" fill="none" stroke-width="6px" class="struqture-element"></path><path d="M446.6,253.4 Q320,193.4 193.4,253.4" stroke="#ff7657" fill="none" stroke-width="1px" class="struqture-element"></path><path d="M193.4,253.4 Q320,313.4 446.6,253.4" stroke="#ff7657" fill="none" stroke-width="1px" class="struqture-element"></path><path d="M446.6,253.4 Q506.6,380 446.6,506.6" stroke="#ff7657" fill="none" stroke-width="6px" class="struqture-element"></path><path d="M446.6,253.4 Q352.41813835208836,430.4882590884738 193.4,506.6" stroke="#ff7657" fill="none" stroke-width="4px" class="struqture-element"></path><path d="M193.4,506.6 Q287.58186164791164,329.5117409115262 446.6,253.4" stroke="#ff7657" fill="none" stroke-width="4px" class="struqture-element"></path><path d="M193.4,253.4 Q253.4,380 193.4,506.6" stroke="#ff7657" fill="none" stroke-width="5px" class="struqture-element"></path><circle cx="145.70005627542207" cy="217.00336047555902" r="60" stroke="#ff7657" stroke-width="2" fill="none" class="struqture-element"></circle><circle cx="494.29994372457793" cy="217.00336047555905" r="60" stroke="#ff7657" stroke-width="2" fill="none" class="struqture-element"></circle><circle cx="193.4" cy="253.4" r="25" fill="#222831" stroke="none" class="alphabet-element"></circle><text x="193.4" y="253.4" text-anchor="middle" alignment-baseline="middle" class="alphabet-element" id="A">A</text><circle cx="446.6" cy="253.4" r="25" fill="#222831" stroke="none" class="alphabet-element"></circle><text x="446.6" y="253.4" text-anchor="middle" alignment-baseline="middle" class="alphabet-element" id="T">T</text><circle cx="446.6" cy="506.6" r="25" fill="#222831" stroke="none" class="alphabet-element"></circle><text x="446.6" y="506.6" text-anchor="middle" alignment-baseline="middle" class="alphabet-element" id="C">C</text><circle cx="193.4" cy="506.6" r="25" fill="#222831" stroke="none" class="alphabet-element"></circle><text x="193.4" y="506.6" text-anchor="middle" alignment-baseline="middle" class="alphabet-element" id="G">G</text></svg>